<svg width="500" height="500" viewBox="0 0 500 500" fill="none" xmlns="http://www.w3.org/2000/svg">
<g clip-path="url(#clip0_401_2)">
<path d="M250 500C388.071 500 500 388.071 500 250C500 111.929 388.071 0 250 0C111.929 0 0 111.929 0 250C0 388.071 111.929 500 250 500Z" fill="url(#paint0_linear_401_2)"/>
<path d="M378.869 190.885C378.869 218.229 363.889 241.692 341.829 254.198C326.433 262.928 308.263 267.293 290.092 266.543C271.922 265.793 254.169 260.136 239.188 250.157L239.188 250.115C233.332 246.167 231.207 238.52 233.957 231.915C235.373 228.592 237.955 225.895 241.213 224.188C244.471 222.482 248.213 221.857 251.87 222.405C254.545 222.78 257.095 223.698 259.386 225.103C264.993 228.634 271.046 231.331 277.37 233.115C284.434 235.073 291.79 235.74 299.079 235.073C302.954 234.781 306.746 233.823 310.246 232.24C316.079 229.407 319.329 224.99 319.329 219.948C319.329 216.115 318.162 212.99 314.912 210.49C311.705 208.023 307.662 206.448 303.412 206.032C295.246 204.99 281.329 203.49 267.079 201.323C230.579 196.157 199.412 180.531 199.412 134.364C199.412 114.989 209.058 97.2397 225.329 85.2396C241.6 73.2396 262.829 67.3229 284.745 68.1562C300.579 68.6979 316.37 72.1562 330.912 78.4062C341.058 83.0312 337.787 97.3229 327.704 98.531C323.245 99.031 318.537 97.9895 314.037 95.1562C309.454 92.2812 304.537 89.9895 299.412 88.2812C288.579 85.2396 277.37 84.531 266.412 85.9895C262.162 86.5729 258.058 88.031 254.329 90.2812C247.995 94.1146 244.662 99.781 244.662 105.948C244.662 109.948 245.579 113.156 248.412 115.656C251.245 118.156 255.579 119.989 260.912 121.156C268.495 122.906 283.412 124.698 297.495 126.573C334.912 131.073 367.454 143.739 378.162 181.156C379.329 184.531 379.162 188.073 378.329 191.323L378.869 190.885Z" fill="white"/>
<path d="M250 432.552C318.659 432.552 374.412 376.799 374.412 308.141C374.412 239.483 318.659 183.73 250 183.73C181.342 183.73 125.589 239.483 125.589 308.141C125.589 376.799 181.342 432.552 250 432.552Z" fill="url(#paint1_linear_401_2)"/>
<path d="M295.683 324.308C295.683 344.641 285.787 362.579 270.537 373.391C258.183 381.871 243.516 386.871 228.224 387.808C213.058 388.641 197.766 385.058 184.474 377.516C180.412 375.141 179.058 369.954 181.058 365.579C182.058 363.454 183.808 361.704 185.933 360.641C188.058 359.641 190.495 359.266 192.808 359.641C194.495 359.954 196.058 360.641 197.516 361.641C204.849 366.433 213.037 369.641 221.474 371.016C230.599 372.558 239.974 371.704 248.787 368.516C251.558 367.516 254.224 366.183 256.662 364.516C260.849 361.683 263.037 358.058 263.037 354.266C263.037 351.579 262.287 349.391 260.37 347.579C258.495 345.766 255.912 344.433 252.724 343.454C247.099 341.829 237.724 340.641 228.224 339.183C204.599 335.704 183.849 324.808 183.849 294.183C183.849 281.641 190.287 270.016 201.099 261.912C211.912 253.808 225.683 249.787 239.641 250.391C250.349 250.683 260.995 253.183 270.724 257.641C277.641 260.933 275.412 270.704 268.474 271.579C265.495 272.016 262.287 271.266 259.224 269.329C256.099 267.391 252.787 265.891 249.349 264.808C242.058 262.558 234.516 262.079 227.058 263.245C224.162 263.683 221.349 264.641 218.787 266.058C214.599 268.641 212.349 272.183 212.349 276.391C212.349 278.891 213.037 281.058 214.912 282.829C216.787 284.641 219.391 285.933 222.599 286.891C227.912 288.308 237.474 289.641 246.787 290.933C271.037 294.141 292.974 302.912 299.787 329.016C300.516 331.433 300.599 333.954 300.016 336.391L295.683 324.308Z" fill="white"/>
</g>
<defs>
<linearGradient id="paint0_linear_401_2" x1="250" y1="0" x2="250" y2="500" gradientUnits="userSpaceOnUse">
<stop stop-color="#06B6D4"/>
<stop offset="1" stop-color="#6366F1"/>
</linearGradient>
<linearGradient id="paint1_linear_401_2" x1="250" y1="183.73" x2="250" y2="432.552" gradientUnits="userSpaceOnUse">
<stop stop-color="#818CF8"/>
<stop offset="1" stop-color="#A855F7"/>
</linearGradient>
<clipPath id="clip0_401_2">
<rect width="500" height="500" fill="white"/>
</clipPath>
</defs>
</svg>